<svg xmlns="http://www.w3.org/2000/svg" style="display:none">

  <!-- PINK BAOBAB -->
  <symbol id="icon-baobab" viewBox="0 0 100 100">
    <path d="M50 80
             C35 80, 30 70, 30 60
             C30 45, 38 40, 38 40
             C35 38, 32 34, 32 30
             C32 20, 40 18, 50 18
             C60 18, 68 20, 68 30
             C68 34, 65 38, 62 40
             C62 40, 70 45, 70 60
             C70 70, 65 80, 50 80Z"
          fill="#ff2ea6"/>
  </symbol>

  <!-- BLUE LION (minimal geometric) -->
  <symbol id="icon-lion" viewBox="0 0 100 100">
    <circle cx="50" cy="45" r="20" fill="#1e40ff"/>
    <circle cx="40" cy="42" r="4" fill="white"/>
    <circle cx="60" cy="42" r="4" fill="white"/>
    <path d="M40 55 Q50 65 60 55" stroke="white" stroke-width="4" fill="none"/>
  </symbol>

</svg>
